<svg width="184" height="158" viewBox="0 0 184 158" fill="none" xmlns="http://www.w3.org/2000/svg">
<path d="M147.396 101.025C147.396 132.191 122.131 157.456 90.9657 157.456C59.8 157.456 34.5352 132.191 34.5352 101.025C34.5352 69.8594 59.8 44.5946 90.9657 44.5946C122.131 44.5946 147.396 69.8594 147.396 101.025Z" fill="black"/>
<path d="M94.2288 49.0697C93.5364 49.5544 86.7278 61.3483 84.0505 66.6797L82.9889 68.8493L82.7581 75.8656C82.5503 83.0896 82.6196 84.0359 83.4043 84.0359C83.612 84.0359 83.8428 83.8512 83.9813 83.6204C84.0967 83.4127 84.8352 80.3662 85.62 76.8811C86.6816 72.2651 87.1894 70.3956 87.5356 70.0033C88.0664 69.4493 88.528 69.3339 88.6665 69.7725C88.7358 69.934 88.6665 73.096 88.5511 76.8118C88.4357 80.5277 88.3896 83.7128 88.4588 83.8974C88.6665 84.4052 90.2821 84.7744 91.0207 84.5206C92.2208 84.0359 92.2208 84.1051 92.6363 71.1111C92.9363 62.0407 93.0979 58.9249 93.3287 58.6941C93.7903 58.2325 94.7596 59.1557 95.1982 60.4712C95.6598 61.9022 95.8675 62.0637 97.2754 62.1561L98.4294 62.2253L98.4986 64.9949C98.5909 68.5723 98.3832 70.6495 97.9447 70.6495C97.4831 70.6495 97.2292 70.0263 96.4906 67.0721C95.8444 64.4871 95.4059 63.8871 95.0597 65.1103C94.9674 65.4334 94.8981 68.8493 94.875 72.7267L94.852 79.7661L95.5674 80.8047C97.0907 83.0665 97.2061 83.482 97.0446 85.4438C96.883 87.1748 96.9061 87.2671 97.4831 87.821C98.0139 88.3749 98.2216 88.4211 100.391 88.4672C101.661 88.4903 102.884 88.5134 103.115 88.5134C103.553 88.5365 103.484 89.829 104.176 68.1569C104.499 58.7633 104.499 56.8938 104.246 56.2707C103.922 55.5552 96.9522 49.2774 96.0521 48.9082C95.4059 48.6543 94.7596 48.7004 94.2288 49.0697Z" fill="#FFD600"/>
<path d="M71.8413 66.5413C71.5874 66.8413 70.7335 68.5723 69.9718 70.4187C64.2018 84.2667 62.9094 87.2902 62.3785 88.2826C61.4322 90.0829 61.9862 91.9523 63.8095 92.9448C64.525 93.3371 64.6173 93.3371 65.6097 92.9448C66.1636 92.7371 66.8099 92.3909 66.9945 92.1601C67.2022 91.9523 68.0562 89.4366 68.8871 86.5747C69.741 83.7359 70.4796 81.3125 70.5258 81.2201C70.595 81.1278 70.9412 81.0355 71.3105 81.0355C72.2337 81.0355 72.7876 80.3662 73.5261 78.289C74.2647 76.2349 74.4493 75.9579 75.0263 75.9579C75.6726 75.9579 75.9265 76.858 75.6957 78.4275C75.3956 80.4816 75.1648 80.897 72.8338 83.3204C71.4951 84.7283 70.4796 86.0208 70.1796 86.6901C69.5333 88.1441 69.0025 90.2444 69.0025 91.3061C69.0025 92.0447 69.0717 92.137 69.5102 92.0677C69.8564 92.0216 70.295 91.5138 70.872 90.4983C71.3566 89.6674 72.2337 88.4442 72.8338 87.7749C73.8723 86.5978 73.9647 86.5285 74.8648 86.6439C75.3956 86.6901 76.2727 86.944 76.8497 87.1517C78.1421 87.6595 78.9499 87.4979 79.9193 86.5516C80.5886 85.8592 80.6117 85.8361 80.4732 83.9667C80.404 82.9281 80.4963 79.5122 80.6809 76.3733C80.9348 72.219 80.9579 70.5341 80.7733 70.1879C80.5425 69.7494 73.2261 66.0335 72.603 66.0335C72.4414 66.0335 72.0952 66.2643 71.8413 66.5413Z" fill="#FFD600"/>
<path d="M111.008 66.1951C110.27 66.4721 108.423 68.2261 107.085 69.8879L105.677 71.642L105.746 76.4195C105.815 80.7586 105.861 81.2663 106.254 81.7048C106.877 82.3972 107.892 82.328 108.608 81.5664L109.208 80.9201L109.762 81.6125C110.062 82.0049 110.316 82.3972 110.316 82.4896C110.316 82.605 110.593 82.6511 110.962 82.605L111.585 82.5357L111.862 79.1199C112.001 77.2273 112.185 75.6348 112.231 75.5656C112.301 75.5194 112.508 75.704 112.716 76.0041C112.97 76.3964 113.109 77.6197 113.247 80.9663L113.455 85.4207L114.355 86.3439C115.232 87.244 115.717 87.4518 115.947 87.0825C115.994 86.9902 115.809 83.1589 115.532 78.6121C114.978 69.6802 115.001 69.911 113.501 67.7184C112.97 66.9106 111.77 65.9643 111.424 66.0566C111.378 66.0566 111.193 66.1259 111.008 66.1951Z" fill="#FFD600"/>
<path d="M94.2749 84.5436C94.575 86.4823 92.9132 89.2288 90.8591 90.2905C89.6589 90.9136 89.982 91.2368 92.3362 91.883C94.9673 92.5754 95.3366 92.5062 95.8443 91.0752C96.4213 89.4365 96.2598 87.3132 95.4289 85.4668C95.0827 84.682 94.6442 83.9204 94.4596 83.7588C94.1595 83.528 94.1364 83.6204 94.2749 84.5436Z" fill="#ED1B24"/>
<path d="M105.261 84.7745C105.976 85.767 106.138 87.8211 105.584 88.9751C104.615 91.0061 100.622 93.0141 97.1135 93.2218C94.2285 93.3834 92.1513 92.9679 87.1199 91.26C83.2424 89.9444 82.4808 89.7367 80.4959 89.6444L78.2341 89.5059L77.3109 90.4291C76.5493 91.2138 76.3877 91.5139 76.3877 92.2755C76.3877 92.7602 76.5493 93.4064 76.757 93.6834C77.5417 94.8143 81.4422 96.2684 85.9659 97.0992C88.9432 97.6532 93.9285 97.4454 96.9289 96.6607C100.737 95.6683 103.876 93.9604 105.861 91.8139C107.107 90.4753 107.546 89.3905 107.546 87.7519C107.546 86.2978 107.13 85.5131 105.93 84.613C104.868 83.8283 104.638 83.8975 105.261 84.7745Z" fill="#ED1B24"/>
<path d="M52.431 85.9285C52.5002 86.09 52.9618 86.2978 53.4926 86.367C54.8082 86.5286 55.3621 87.1056 55.316 88.2134C55.2698 89.3674 55.9622 90.0829 57.7394 90.7753C59.4011 91.4215 59.5396 91.7677 58.9626 94.0526C58.5702 95.5759 58.5702 95.7606 58.9164 96.4299C59.3319 97.2377 60.4397 98.1147 61.0167 98.1147C61.6399 98.1147 61.4322 97.607 60.4166 96.5684L59.4242 95.5759L59.8396 94.445C60.0474 93.8218 60.232 92.8294 60.232 92.2524C60.232 90.9368 59.7012 90.3598 57.9471 89.7136C56.6315 89.252 56.3084 88.8366 56.3084 87.6133C56.3084 86.2978 55.4544 85.6515 53.7234 85.6515C52.731 85.6515 52.3617 85.7208 52.431 85.9285Z" fill="#ED1B24"/>
<path d="M111.331 88.0751C111.77 89.9445 111.747 90.1292 110.962 91.3063C109.946 92.8295 107.985 94.0989 104.315 95.5991C102.676 96.2685 101.361 96.8685 101.43 96.9147C101.568 97.0763 110.523 96.4993 111.539 96.2685C112.554 96.0607 112.924 95.6453 113.431 94.2143C113.985 92.5757 113.893 91.0293 113.108 89.6907C112.739 89.0444 112.162 88.2828 111.816 87.9597L111.17 87.3827L111.331 88.0751Z" fill="#ED1B24"/>
<path d="M120.932 89.2981C120.932 91.3984 120.517 91.8369 117.055 93.5448C115.439 94.3296 114.586 94.8835 114.424 95.2528C114.285 95.5528 114.216 95.8759 114.285 95.9452C114.632 96.2683 121.948 94.6527 122.479 94.1218C122.894 93.7064 123.125 91.9985 122.917 90.8907C122.756 90.0598 121.486 87.9595 121.14 87.9595C121.025 87.9595 120.932 88.5596 120.932 89.2981Z" fill="#ED1B24"/>
<path d="M41.4678 90.6598C41.3754 90.7291 41.7447 91.006 42.2986 91.2368C44.3758 92.16 45.4606 93.8218 45.4606 96.0144C45.4606 96.776 45.576 97.4684 45.7145 97.5608C45.9914 97.7223 47.5378 97.0992 48.5533 96.4298C49.1303 96.0144 49.1995 95.8528 49.0841 95.0912C48.8533 93.2679 46.7992 91.2138 44.722 90.7291C43.5911 90.4752 41.6755 90.429 41.4678 90.6598Z" fill="#ED1B24"/>
<path d="M50.3535 91.0062C49.361 91.2139 49.2225 91.6524 50.1457 91.6524C50.8612 91.6524 52.3614 92.5756 52.9153 93.3142C53.2385 93.7527 53.4231 94.422 53.4923 95.3914C53.5385 96.1992 53.6539 96.9147 53.7462 97.007C53.8385 97.0993 54.554 97.0762 55.3387 96.9378L56.7697 96.6839V95.7145C56.7697 93.6142 55.0156 91.4216 52.9153 90.937C51.8767 90.7062 51.669 90.7062 50.3535 91.0062Z" fill="#ED1B24"/>
<path d="M130.972 92.8296C130.603 93.0604 129.218 93.6835 127.926 94.1913C120.679 97.0301 109.415 98.5765 95.706 98.5765C90.7438 98.5765 89.7744 98.715 89.7744 99.3612C89.7744 99.5228 90.6976 100.469 91.8055 101.485C94.6674 104.07 96.4676 106.493 96.4676 107.785C96.4676 108.016 96.6522 108.293 96.86 108.362C97.5985 108.662 104.453 108.986 110.085 108.986C117.517 109.009 121.786 108.385 125.248 106.747C126.91 105.962 126.841 105.639 125.041 105.824C120.125 106.308 116.986 106.424 114.262 106.193C108.169 105.685 103.738 104.785 101.314 103.585C99.5142 102.685 99.1449 102.177 99.8604 101.6C100.253 101.254 100.968 101.161 103.669 101.046C107.015 100.908 114.608 100.031 118.163 99.3612C122.617 98.5303 127.903 96.3377 130.511 94.2605C132.288 92.8065 132.634 91.7448 130.972 92.8296Z" fill="#ED1B24"/>
<path d="M73.2721 95.6914C72.8105 96.1299 72.6951 96.4992 72.6951 97.3532C72.6951 98.8765 72.5104 99.0611 71.1487 99.0842C69.6024 99.0842 69.1639 98.8303 67.5021 97.0531C66.4173 95.8761 65.9327 95.5299 65.2633 95.4145C64.5017 95.2991 64.3171 95.3683 63.5785 96.1069C62.4476 97.2378 62.4476 98.3225 63.5554 99.3842C63.9939 99.7997 64.294 100.192 64.2247 100.284C64.1324 100.354 63.6939 100.423 63.2092 100.423C62.0091 100.423 61.6167 100.884 61.6167 102.315C61.6167 103.331 61.709 103.562 62.4245 104.277C63.2323 105.085 63.2554 105.108 64.7556 104.97L66.2558 104.831L66.6251 105.685C66.9713 106.539 67.5713 107.347 67.8483 107.347C67.9175 107.347 67.9868 106.862 67.9868 106.262L67.9637 105.154L69.0485 105.108C70.3409 105.062 71.1257 104.6 71.795 103.516C72.3258 102.639 72.3489 102.662 74.1491 103.839C74.8646 104.323 75.3493 104.439 77.011 104.508C79.2729 104.6 79.4575 104.716 79.8268 106.493C80.1961 108.178 80.1268 108.87 79.5268 109.562C79.1113 110.047 78.7882 110.209 78.1189 110.209C76.988 110.209 75.7647 108.962 75.557 107.578C75.3724 106.447 75.1185 106.239 74.7492 106.908C74.5184 107.347 74.5415 108.455 74.8184 110.232C74.9338 110.947 73.0182 111.017 72.1643 110.347C70.8718 109.332 70.6871 108.455 71.218 106.124L71.3795 105.454L70.7102 105.8C69.6716 106.331 68.9792 107.231 68.5176 108.547C68.1253 109.724 68.0791 109.77 67.2251 109.839C65.7019 109.932 65.3557 110.093 64.871 110.901C63.6016 112.955 65.171 114.917 68.8177 115.771C74.703 117.156 88.0202 114.363 92.0823 110.878C93.6517 109.539 94.3441 107.624 93.8364 106.008C93.5363 104.993 91.2052 102.454 89.2204 100.977C87.1432 99.4073 85.4352 98.6226 82.4348 97.8609C80.473 97.3763 79.4114 96.9608 78.5805 96.3838C77.0803 95.3683 76.3648 95.1144 74.98 95.1144C74.0568 95.1144 73.7106 95.2298 73.2721 95.6914ZM76.1109 96.4992C76.9649 97.307 76.6187 98.1148 75.4185 98.1148C74.7492 98.1148 73.8491 97.4224 73.8491 96.8916C73.8491 95.9915 75.3031 95.7376 76.1109 96.4992Z" fill="#ED1B24"/>
<path d="M47.4689 97.9763C45.8071 98.6687 45.4609 98.9456 45.4609 99.638C45.4609 100.1 45.5763 100.192 46.1072 100.192C47.1227 100.192 47.1227 100.4 46.1302 101.346L45.207 102.223L45.5763 103.1C45.9918 104.092 46.8226 105.062 47.6535 105.5C48.1151 105.754 48.2997 105.731 48.9229 105.27C49.3153 104.993 49.7999 104.831 50.0077 104.9C50.3308 105.039 50.2846 105.154 49.7769 105.685C49.3383 106.147 49.1537 106.585 49.1537 107.185C49.1537 107.67 48.946 108.478 48.669 109.009C48.3459 109.632 48.2536 110.093 48.3921 110.347C48.669 110.947 51.1847 112.932 51.4617 112.771C51.6002 112.701 51.6925 112.101 51.6925 111.478C51.6925 110.555 51.831 110.093 52.3849 109.309C52.7542 108.778 53.1927 107.855 53.3312 107.278C53.6774 106.031 53.3773 105.154 52.2233 103.862C51.7617 103.354 51.4386 102.708 51.3694 102.223C51.3232 101.784 51.0693 101 50.8155 100.515C50.5616 100.03 50.2846 99.2688 50.1923 98.8533C50.0307 98.0686 49.523 97.4224 49.0845 97.4224C48.9229 97.4224 48.2074 97.6762 47.4689 97.9763Z" fill="#ED1B24"/>
<path d="M37.4982 97.8149C36.6211 98.0227 36.6211 98.3227 37.5213 98.692C39.3215 99.4305 40.1524 100.746 40.1524 102.8C40.1524 104 40.614 104.093 41.9988 103.193C43.2451 102.385 43.3143 102.2 42.8297 101C41.7911 98.5535 39.6908 97.2841 37.4982 97.8149Z" fill="#ED1B24"/>
<path d="M55.3853 97.9072C53.2619 98.2995 52.6157 98.9919 52.6157 100.792C52.6157 101.762 52.7311 102.154 53.2388 102.731C53.862 103.469 54.1389 103.516 55.5699 103.077C56.2854 102.846 56.2392 103.354 55.4314 104.346C54.0697 106.008 53.9774 106.539 54.7159 108.27C55.016 108.962 55.1545 109.632 55.0621 109.978C54.9929 110.278 54.2082 111.317 53.3081 112.263C51.9233 113.74 51.6925 114.109 51.6925 114.825C51.6925 115.286 51.6001 115.656 51.4847 115.656C51.3924 115.656 50.8154 114.94 50.2384 114.063C49.6614 113.186 48.7382 112.124 48.2305 111.686C47.3303 110.994 47.2611 110.855 47.3765 110.047C47.4919 109.263 47.3996 109.032 46.7072 108.27C46.1302 107.624 45.9225 107.185 45.9225 106.585C45.9225 106.077 45.7609 105.639 45.5532 105.454C45.3455 105.293 44.7915 104.762 44.3069 104.277L43.4529 103.377L41.9758 104.162C40.7064 104.831 40.4987 105.016 40.5679 105.5C40.7064 106.493 41.2603 107.093 42.1604 107.255C43.4298 107.485 43.476 107.532 42.7836 108.432C42.2989 109.078 42.2066 109.401 42.2989 110.07C42.5066 111.317 42.9221 111.617 43.9607 111.27C44.4223 111.109 44.8608 111.063 44.93 111.132C45.0223 111.201 44.8608 111.663 44.6069 112.148C43.2452 114.548 43.0836 117.871 44.1684 120.849C45.0223 123.226 46.1763 124.195 48.5536 124.541C50.1692 124.795 50.3307 125.003 50.5615 127.196C50.8154 129.711 51.2078 130.288 52.7541 130.381C53.4235 130.427 54.0466 130.335 54.2774 130.15C54.8313 129.734 55.2468 126.549 54.9237 125.303C54.6929 124.541 54.739 124.334 55.1545 123.803C55.6622 123.157 55.7545 122.118 55.3622 121.379C54.9467 120.595 55.4776 119.718 56.7931 119.118C58.0395 118.518 58.0164 118.587 58.3626 115.702C58.5241 114.525 58.8703 113.186 59.3089 112.194C60.1859 110.186 60.1859 109.424 59.3089 108.432C58.1318 107.093 57.8779 105.916 58.5011 104.716C58.9627 103.839 58.9396 103.123 58.3857 102.223C58.0625 101.692 57.9702 101.231 58.0625 100.561C58.201 99.3612 57.5779 98.0918 56.7701 97.8841C56.4469 97.8148 55.8238 97.8148 55.3853 97.9072Z" fill="#ED1B24"/>
<path d="M132.564 99.938C130.603 100.954 129.241 101.3 126.241 101.484L123.979 101.646L123.84 102.338C123.771 102.708 123.702 103.423 123.702 103.931V104.854L125.41 104.692C127.164 104.531 128.779 104.831 128.779 105.316C128.779 106.147 124.948 108.455 122.825 108.939C122.271 109.055 121.763 109.216 121.694 109.285C121.625 109.355 121.694 109.932 121.855 110.578C122.248 112.217 123.471 113.14 124.163 112.309C124.602 111.801 125.225 111.893 125.64 112.54C125.987 113.047 126.171 113.117 127.51 113.117C128.872 113.117 129.056 113.163 129.264 113.648C129.472 114.109 129.31 114.686 128.318 117.179C125.271 124.795 122.155 130.034 117.355 135.55C114.654 138.666 107.015 144.575 102.584 146.975L101.199 147.737H102.145C102.722 147.737 104.014 147.39 105.238 146.929C107.961 145.867 110.569 145.498 112.97 145.867C115.739 146.283 117.447 146.19 118.393 145.636L119.178 145.152L118.278 144.829C116.639 144.275 115.878 142.89 116.639 141.828C116.916 141.459 117.355 141.367 119.709 141.251C122.04 141.136 122.594 141.043 123.609 140.513C124.671 139.982 126.471 138.251 126.471 137.789C126.471 137.697 125.917 137.835 125.271 138.089C123.84 138.62 122.732 138.528 121.948 137.789C120.909 136.82 121.371 135.412 122.963 134.604C123.425 134.373 124.74 134.073 125.871 133.912C129.056 133.473 130.256 132.942 132.08 131.096C132.957 130.219 133.603 129.411 133.511 129.296C133.441 129.157 132.703 129.388 131.872 129.78C130.026 130.634 128.756 130.588 127.925 129.619C127.325 128.95 127.279 128.626 127.648 127.819C128.11 126.78 128.964 126.503 131.734 126.503C133.118 126.503 134.595 126.388 135.034 126.249C136.28 125.834 137.342 124.911 137.78 123.872C138.219 122.833 138.542 121.425 138.334 121.425C138.265 121.425 137.78 121.795 137.273 122.233C135.957 123.341 135.011 123.641 134.111 123.156C132.518 122.349 132.334 120.756 133.649 119.233C134.365 118.425 135.219 118.033 137.85 117.386C139.142 117.063 139.65 116.763 140.689 115.84C142.327 114.34 142.327 113.924 140.689 113.74C139.996 113.671 139.142 113.463 138.773 113.278C137.319 112.517 135.149 109.747 134.249 107.485C133.649 106.031 133.626 102.8 134.18 100.653C134.388 99.8688 134.549 99.1764 134.549 99.1302C134.549 98.9456 134.203 99.084 132.564 99.938Z" fill="#ED1B24"/>
<path d="M119.547 101.554L117.816 101.692L117.562 103.1C117.424 103.862 117.239 104.623 117.147 104.762C116.893 105.2 122.178 105.154 122.525 104.716C122.686 104.508 122.779 103.792 122.732 102.915C122.663 101.23 122.802 101.3 119.547 101.554Z" fill="#ED1B24"/>
<path d="M113.039 101.738C112.601 101.854 112.162 102.939 112.162 103.908C112.162 104.462 112.301 104.6 113.039 104.785C114.309 105.154 115.024 105.085 115.716 104.554C116.317 104.07 116.778 102.916 116.593 102.223C116.547 102.015 116.27 101.785 116.016 101.715C115.439 101.577 113.639 101.577 113.039 101.738Z" fill="#ED1B24"/>
<path d="M104.73 102.292C103.461 103.031 105.492 104 109.3 104.462C110.754 104.646 111.239 104.277 111.239 102.939V102.038H108.192C106.507 102.038 104.938 102.154 104.73 102.292Z" fill="#ED1B24"/>
<path d="M64.7786 105.87C64.6863 105.962 64.6171 106.493 64.6171 107.047C64.6171 108.247 64.3632 108.409 63.0015 108.039C61.5936 107.67 61.1551 108.109 61.1551 109.909C61.1551 110.647 61.0397 111.524 60.8781 111.848C60.6704 112.309 60.6704 112.494 60.9012 112.725C61.132 112.932 61.2705 112.886 61.6398 112.448C61.9629 112.055 62.0783 111.547 62.0783 110.417V108.939L63.44 109.101C64.7325 109.239 64.8248 109.216 65.1941 108.662C65.8172 107.693 65.448 105.2 64.7786 105.87Z" fill="#ED1B24"/>
<path d="M117.586 109.909C115.624 110.116 115.163 110.416 115.163 111.432C115.163 112.217 115.809 112.447 117.332 112.194C119.155 111.893 120.586 111.086 120.586 110.347C120.586 109.655 120.286 109.609 117.586 109.909Z" fill="#ED1B24"/>
<path d="M95.4288 110.739C95.0595 111.224 94.3671 112.055 93.8594 112.586L92.9131 113.578L93.4901 114.178C94.2286 114.963 97.0213 116.371 99.4678 117.156C102.26 118.079 106.023 118.194 109.392 117.502C113.2 116.74 117.262 115.286 119.178 114.04C120.84 112.955 121.555 112.286 121.325 112.055C121.255 111.986 120.24 112.24 119.04 112.609C116.201 113.532 113.385 113.832 110.177 113.555C104.568 113.094 101.822 112.447 98.7985 110.947C97.6445 110.37 96.5597 109.886 96.3751 109.886C96.2135 109.886 95.775 110.278 95.4288 110.739Z" fill="#ED1B24"/>
<path d="M102.33 110.209C102.261 110.393 102.261 110.647 102.33 110.786C102.607 111.201 104.892 111.916 106.276 111.986L107.661 112.078L107.73 111.201C107.777 110.647 107.707 110.301 107.5 110.255C107.338 110.209 106.138 110.093 104.822 110.024C102.884 109.909 102.422 109.932 102.33 110.209Z" fill="#ED1B24"/>
<path d="M109.023 110.439C108.746 111.132 109.046 112.078 109.623 112.355C110.362 112.724 113.039 112.724 113.778 112.355C114.239 112.124 114.355 111.894 114.355 111.155V110.232L111.747 110.163C109.646 110.116 109.139 110.163 109.023 110.439Z" fill="#ED1B24"/>
<path d="M121.994 114.086C121.948 114.248 121.833 115.148 121.763 116.048C121.648 117.548 121.671 117.779 122.109 118.218C122.363 118.471 122.733 118.656 122.94 118.61C123.448 118.518 123.933 116.971 124.002 115.309L124.048 113.925L123.056 113.855C122.41 113.809 122.04 113.878 121.994 114.086Z" fill="#ED1B24"/>
<path d="M124.995 115.24C124.902 115.909 124.718 116.856 124.579 117.34C124.21 118.541 124.51 118.794 125.779 118.287C126.495 118.01 126.841 117.687 127.072 117.133C127.81 115.379 127.28 114.04 125.849 114.04C125.179 114.04 125.133 114.086 124.995 115.24Z" fill="#ED1B24"/>
<path d="M63.0017 114.709C62.6786 115.356 62.7248 117.387 63.094 118.287C63.3941 118.979 64.225 119.81 64.6635 119.81C64.7558 119.81 64.7789 119.348 64.7096 118.794C64.5712 117.894 64.6404 117.71 65.1712 117.248C65.9098 116.602 65.9329 116.279 65.2174 115.909C64.9174 115.748 64.4327 115.309 64.1788 114.94C63.6018 114.155 63.3479 114.109 63.0017 114.709Z" fill="#ED1B24"/>
<path d="M90.3512 115.217C89.728 115.586 88.5509 116.094 87.7662 116.371C86.9584 116.625 86.266 116.925 86.1968 117.04C85.9891 117.363 88.5971 119.602 89.8434 120.156C91.459 120.918 94.2517 121.287 96.7674 121.102C99.1908 120.918 101.383 120.202 101.268 119.625C101.199 119.371 100.991 119.256 100.645 119.279C99.6755 119.395 96.929 118.679 95.5672 117.964C94.3209 117.294 91.8514 115.125 91.8514 114.686C91.8514 114.409 91.5975 114.502 90.3512 115.217Z" fill="#ED1B24"/>
<path d="M118.463 115.402C115.162 117.133 115.07 117.34 116.455 119.602C117.701 121.61 117.747 121.61 118.878 120.456C120.147 119.164 120.678 117.894 120.771 116.094C120.84 114.294 120.701 114.248 118.463 115.402Z" fill="#ED1B24"/>
<path d="M66.602 117.41C66.3943 117.964 66.4404 119.556 66.6943 120.041C67.0867 120.779 68.7254 121.91 70.064 122.372C70.7795 122.626 71.4026 122.787 71.4488 122.741C71.518 122.695 71.1257 122.21 70.5948 121.703C69.6947 120.802 69.6486 120.687 69.7409 119.648C69.8101 119.025 69.9255 118.379 70.0178 118.171C70.1332 117.894 69.9024 117.733 68.7946 117.433C67.0636 116.948 66.7866 116.948 66.602 117.41Z" fill="#ED1B24"/>
<path d="M82.8736 117.502C82.4351 117.617 81.258 117.756 80.2656 117.848C79.0423 117.963 78.4653 118.102 78.4653 118.31C78.4653 119.002 80.5656 121.425 81.7427 122.118C84.1199 123.48 87.9281 124.287 89.7745 123.803C90.8362 123.526 90.79 123.272 89.636 122.926C87.0511 122.164 85.0662 120.41 84.5584 118.448C84.2815 117.317 84.0968 117.202 82.8736 117.502Z" fill="#ED1B24"/>
<path d="M71.3797 118.771C71.5643 119.925 72.6722 121.356 74.357 122.626C76.5496 124.287 79.3884 125.164 81.558 124.887C82.6427 124.749 82.9889 124.195 81.9965 124.195C80.7271 124.172 79.4577 123.364 78.3729 121.887C77.7959 121.102 77.1958 120.018 77.0574 119.51C76.9189 118.979 76.7573 118.402 76.7112 118.24C76.665 118.033 75.9034 117.963 73.9416 117.963H71.2412L71.3797 118.771Z" fill="#ED1B24"/>
<path d="M112.278 119.648C111.331 120.156 110.87 120.549 110.824 120.895C110.685 121.841 112.924 125.58 113.616 125.58C114.009 125.557 117.009 122.672 117.009 122.303C117.009 121.772 114.493 118.887 114.055 118.887C113.847 118.887 113.039 119.233 112.278 119.648Z" fill="#ED1B24"/>
<path d="M120.147 120.341C119.432 121.126 118.855 121.841 118.855 121.933C118.855 122.395 119.847 123.041 120.54 123.041C121.671 123.041 122.248 122.51 122.525 121.195C122.871 119.602 122.871 119.648 122.109 119.233L121.417 118.887L120.147 120.341Z" fill="#ED1B24"/>
<path d="M124.256 119.302C124.094 119.395 123.817 120.087 123.633 120.849C123.309 122.118 123.309 122.256 123.656 122.51C124.325 123.041 124.602 122.833 125.317 121.264C125.987 119.81 126.01 119.695 125.641 119.418C125.179 119.095 124.648 119.048 124.256 119.302Z" fill="#ED1B24"/>
<path d="M56.77 121.149C56.77 121.518 58.8703 123.341 60.6936 124.564C65.1711 127.565 70.7565 130.45 75.0032 131.927C78.396 133.104 81.2348 133.127 79.0653 131.95C78.119 131.442 77.3112 130.727 77.3112 130.404C77.3112 130.288 77.5651 129.919 77.8882 129.619C78.3729 129.111 78.6498 129.042 80.0808 129.042C81.7426 129.042 81.9734 128.903 81.304 128.303C80.0577 127.219 78.2344 126.919 75.0724 127.242C72.9952 127.449 72.626 127.426 72.1182 127.103C70.918 126.319 71.7028 125.58 73.6184 125.742L74.657 125.834L73.9184 125.141C72.7183 124.034 71.6335 123.826 69.6025 124.287C67.7792 124.726 65.5404 124.634 65.0788 124.08C64.6172 123.526 65.6558 122.949 67.0406 122.995C67.733 123.018 68.31 122.926 68.31 122.81C68.31 122.695 67.8253 122.303 67.2252 121.956C66.1405 121.333 66.0251 121.31 62.3092 121.264C60.2089 121.241 58.1087 121.149 57.6471 121.056C57.1393 120.987 56.77 121.01 56.77 121.149Z" fill="#ED1B24"/>
<path d="M106.807 121.518C105.353 121.841 104.776 122.21 104.776 122.833C104.776 123.41 106.369 126.572 107.292 127.819C107.684 128.373 108.192 128.811 108.4 128.811C108.608 128.811 109.531 128.326 110.477 127.749C112.093 126.734 112.554 126.088 111.931 125.695C111.793 125.603 111.377 124.911 110.985 124.126C109.969 122.095 109.231 121.195 108.631 121.218C108.354 121.218 107.546 121.356 106.807 121.518Z" fill="#ED1B24"/>
<path d="M99.8139 123.595C97.8752 124.657 97.8983 124.887 100.137 128.119C101.153 129.573 102.307 131.119 102.699 131.558L103.391 132.342L104.13 131.719C104.545 131.396 105.261 130.911 105.722 130.681C107.2 129.873 107.2 129.85 105.261 126.942C104.291 125.464 103.322 123.918 103.114 123.526C102.584 122.556 101.637 122.579 99.8139 123.595Z" fill="#ED1B24"/>
<path d="M116.778 124.311C116.085 125.142 115.462 125.996 115.439 126.18C115.347 126.573 116.247 127.657 116.639 127.657C117.17 127.657 118.532 126.296 119.063 125.234L119.594 124.149L119.155 123.526C118.901 123.203 118.532 122.903 118.37 122.857C118.186 122.834 117.47 123.48 116.778 124.311Z" fill="#ED1B24"/>
<path d="M56.7697 123.48C56.3312 124.31 56.4928 125.118 57.139 125.349C57.9006 125.649 58.7777 125.649 58.9623 125.349C59.1239 125.095 57.5775 123.041 57.2313 123.041C57.1159 123.041 56.9082 123.249 56.7697 123.48Z" fill="#ED1B24"/>
<path d="M121.394 123.618C120.471 123.849 120.309 124.01 119.917 124.934C119.432 126.111 119.524 126.942 120.24 127.657C120.84 128.257 121.532 128.003 122.456 126.803C123.171 125.857 123.586 124.334 123.333 123.641C123.171 123.226 122.871 123.226 121.394 123.618Z" fill="#ED1B24"/>
<path d="M91.2976 125.349C89.4973 126.111 88.8511 126.619 88.8511 127.242C88.8511 128.857 91.136 133.473 92.9824 135.551C94.7134 137.489 97.8292 140.351 98.2446 140.351C98.6831 140.351 99.3986 139.082 99.8371 137.582C100.022 136.889 100.599 135.62 101.107 134.766C101.591 133.935 102.007 133.15 102.007 133.081C102.007 132.989 101.499 132.273 100.876 131.465C100.253 130.681 99.1447 129.111 98.4293 127.98C96.3982 124.818 96.2136 124.657 94.4133 124.657C93.2594 124.657 92.4977 124.841 91.2976 125.349Z" fill="#ED1B24"/>
<path d="M57.001 126.942C57.001 127.842 57.9473 128.58 59.2628 128.742L60.463 128.88V128.142C60.463 126.757 60.1629 126.503 58.5012 126.503C57.1625 126.503 57.001 126.549 57.001 126.942Z" fill="#ED1B24"/>
<path d="M112.924 127.634C112.416 128.003 111.677 128.465 111.285 128.673C110.339 129.157 110.362 129.527 111.354 130.634C112.208 131.581 113.316 132.181 113.87 131.973C114.309 131.811 115.393 129.55 115.393 128.788C115.393 128.119 114.609 126.965 114.147 126.965C113.985 126.965 113.432 127.265 112.924 127.634Z" fill="#ED1B24"/>
<path d="M61.3862 128.627C61.3862 129.873 62.1479 131.881 62.7941 132.435C63.1403 132.712 65.5868 132.527 65.9099 132.204C66.1638 131.95 64.5713 129.319 63.7404 128.65C61.7786 127.08 61.3862 127.08 61.3862 128.627Z" fill="#ED1B24"/>
<path d="M84.8123 127.865C84.0046 128.349 81.9043 130.542 81.4658 131.327C80.5426 133.104 80.7272 133.912 82.7813 136.658C85.5278 140.328 89.1283 143.328 93.075 145.221C95.4061 146.329 96.5831 146.559 97.5525 146.052C98.2449 145.682 99.9297 143.974 99.9297 143.628C99.9297 143.536 98.6373 142.428 97.0447 141.182C93.0288 138.02 90.3746 134.766 88.459 130.657C86.9126 127.38 86.3125 126.918 84.8123 127.865Z" fill="#ED1B24"/>
<path d="M117.932 128.003C117.632 128.326 117.147 128.58 116.87 128.58C116.501 128.58 116.294 128.788 116.109 129.296C115.97 129.711 115.855 130.173 115.855 130.334C115.855 130.588 118.163 132.504 118.486 132.504C118.74 132.504 120.009 129.965 120.009 129.434C120.009 128.88 119.017 127.426 118.648 127.426C118.555 127.426 118.232 127.68 117.932 128.003Z" fill="#ED1B24"/>
<path d="M55.7543 128.165C55.5005 129.111 55.6159 129.48 56.1929 129.873C57.0699 130.45 57.2545 130.08 56.7006 128.811C56.1698 127.542 55.9621 127.403 55.7543 128.165Z" fill="#ED1B24"/>
<path d="M58.2471 130.057C57.8316 130.38 57.8316 130.45 58.1547 131.05C58.8241 132.273 61.0397 133.242 61.5013 132.504C61.686 132.204 61.109 131.142 60.3473 130.357C59.6319 129.665 58.9395 129.573 58.2471 130.057Z" fill="#ED1B24"/>
<path d="M66.2329 130.196C66.2329 130.311 66.3945 130.75 66.5791 131.165C66.7637 131.581 67.0176 132.365 67.1561 132.896C67.4561 134.073 68.2639 135.089 69.3487 135.597C70.018 135.92 70.3181 135.943 71.0797 135.735C71.6105 135.597 72.0721 135.343 72.1414 135.158C72.4645 134.35 69.7872 130.911 68.3793 130.288C67.5254 129.919 66.2329 129.85 66.2329 130.196Z" fill="#ED1B24"/>
<path d="M107.615 130.565C106.807 131.05 106.623 131.281 106.623 131.835C106.623 133.82 108.492 135.597 110.154 135.181C110.823 135.02 112.623 133.635 112.623 133.289C112.623 133.127 112.277 132.804 111.885 132.527C111.469 132.273 110.662 131.604 110.085 131.027C109.531 130.45 108.954 129.965 108.815 129.965C108.7 129.965 108.146 130.242 107.615 130.565Z" fill="#ED1B24"/>
<path d="M51.9465 131.35C51.8311 131.419 51.7157 132.319 51.6695 133.358C51.5772 135.181 51.5541 135.273 50.7002 136.127C50.2386 136.635 49.8462 137.12 49.8462 137.212C49.8462 137.558 51.9695 137.189 52.5927 136.728C53.8621 135.781 55.2238 131.95 54.4622 131.465C54.1391 131.258 52.2234 131.165 51.9465 131.35Z" fill="#ED1B24"/>
<path d="M114.678 132.527C113.893 133.358 113.847 133.866 114.47 135.227L114.908 136.22L116.224 134.927C117.309 133.866 117.493 133.566 117.378 133.081C117.239 132.55 116.224 131.811 115.624 131.811C115.462 131.811 115.047 132.135 114.678 132.527Z" fill="#ED1B24"/>
<path d="M103.83 133.242C102.768 134.396 101.545 136.704 101.545 137.581C101.545 138.759 103.161 139.774 104.661 139.566C106.046 139.336 106.438 138.828 106.576 136.912C106.669 135.597 106.599 135.181 106.184 134.443C105.93 133.935 105.607 133.266 105.469 132.896C105.353 132.55 105.145 132.273 105.007 132.273C104.868 132.273 104.338 132.712 103.83 133.242Z" fill="#ED1B24"/>
<path d="M72.4873 132.712C72.2103 132.896 72.2565 133.081 72.7642 133.819C73.2489 134.535 73.3874 134.996 73.3874 135.989C73.3874 137.189 73.4335 137.304 74.5183 138.366C75.6261 139.451 75.6723 139.474 76.457 139.22C77.8418 138.758 81.073 137.374 81.3269 137.12C81.5808 136.866 80.7037 134.789 80.0806 134.235C79.7575 133.935 79.619 133.958 78.8343 134.373C77.7033 134.973 77.1033 134.835 75.7877 133.612C75.003 132.896 74.5414 132.665 73.8028 132.573C73.2489 132.527 72.6719 132.573 72.4873 132.712Z" fill="#ED1B24"/>
<path d="M62.6784 133.727C62.286 134.004 62.3091 134.073 63.0246 134.697C63.8324 135.366 66.8097 136.889 67.3174 136.889C67.8714 136.889 67.8714 136.428 67.3174 135.689C67.0174 135.274 66.625 134.581 66.4635 134.166C66.1865 133.427 66.1634 133.427 64.6402 133.427C63.717 133.427 62.9092 133.543 62.6784 133.727Z" fill="#ED1B24"/>
<path d="M111.839 135.412C110.639 136.358 110.477 136.728 110.593 138.436L110.662 139.636L111.931 139.128C113.039 138.666 113.247 138.505 113.639 137.536C114.078 136.474 114.078 136.428 113.662 135.504C113.431 134.997 113.178 134.581 113.085 134.581C112.993 134.581 112.439 134.951 111.839 135.412Z" fill="#ED1B24"/>
<path d="M107.777 136.128C107.754 136.243 107.662 137.397 107.546 138.712C107.315 141.344 107.408 141.736 108.4 141.736C109.162 141.736 109.623 140.559 109.623 138.574C109.623 136.774 109.231 135.966 108.331 135.966C108.031 135.966 107.777 136.035 107.777 136.128Z" fill="#ED1B24"/>
<path d="M68.9562 137.143C68.31 137.512 68.4716 137.951 69.5332 138.828C71.4489 140.397 73.8492 141.043 73.8492 139.982C73.8492 139.382 73.203 138.366 72.349 137.604C71.6797 137.027 71.3335 136.889 70.4334 136.889C69.8333 136.889 69.164 137.004 68.9562 137.143Z" fill="#ED1B24"/>
<path d="M79.642 139.497C79.065 139.659 78.5803 139.913 78.5111 140.097C78.3495 140.582 81.65 143.651 83.1271 144.367C84.8812 145.221 87.42 145.867 89.751 146.052C91.182 146.144 91.6436 146.121 91.5282 145.936C91.4359 145.775 90.3511 145.059 89.1279 144.344C87.8816 143.605 86.1044 142.267 85.1581 141.367C84.2118 140.466 83.1963 139.612 82.9194 139.451C82.2962 139.128 80.9807 139.151 79.642 139.497Z" fill="#ED1B24"/>
<path d="M99.7449 140.167C99.2372 140.674 99.4449 141.551 100.276 142.451C100.714 142.959 101.084 143.536 101.084 143.767C101.084 143.975 100.668 144.529 100.137 144.99C99.3756 145.637 99.2141 145.913 99.3295 146.306C99.6757 147.368 100.276 147.16 103.461 144.921C106.161 143.005 106.507 142.659 106.577 142.036C106.623 141.528 106.507 141.159 106.161 140.813C105.746 140.397 105.515 140.351 104.338 140.49C103.322 140.605 102.838 140.536 102.284 140.259C101.43 139.82 100.137 139.774 99.7449 140.167Z" fill="#ED1B24"/>
<path d="M75.1876 140.513C74.7029 140.697 74.3105 140.951 74.3105 141.09C74.3105 141.205 75.0029 141.621 75.88 142.013C77.7956 142.89 79.1573 143.375 79.1573 143.19C79.1573 143.121 78.6957 142.544 78.1187 141.944C77.5417 141.344 77.0801 140.674 77.0801 140.467C77.0801 140.028 76.3185 140.028 75.1876 140.513Z" fill="#ED1B24"/>
<path d="M87.2769 1.86452L85.7231 3.77343L87.0993 3.90661C87.9872 3.99539 88.7419 3.77343 89.4078 3.15192L90.4288 2.21967L91.2279 3.10753C91.7162 3.68464 92.6041 3.99539 93.5363 3.99539H95.0457L93.6251 1.9977C92.3821 0.221973 91.9826 7.49528e-06 90.5176 7.49528e-06C89.097 7.49528e-06 88.6087 0.266366 87.2769 1.86452Z" fill="#FFD600"/>
<path d="M86.2558 5.19402L83.0151 5.37159V14.8717V24.4163H90.6952C94.9569 24.4163 98.5083 24.3275 98.5971 24.2387C98.6859 24.1055 98.7303 23.1289 98.6415 22.019L98.464 19.9769H93.6251H88.7862V18.2012V16.4699L93.1368 16.3367L97.4429 16.2035V14.2502V12.2969L93.1368 12.3857L88.7862 12.4745V10.9207V9.32258H93.4475H98.1088V7.10293V4.88327L93.8027 4.97205C91.4054 5.01645 87.9872 5.14963 86.2558 5.19402Z" fill="#FFD600"/>
<path d="M101.927 7.36884C101.793 8.47867 101.749 9.5441 101.882 9.76607C101.971 9.94364 103.214 10.21 104.59 10.3432C105.966 10.4764 107.165 10.6539 107.254 10.7871C107.343 10.8759 107.032 13.939 106.543 17.5793C106.055 21.2195 105.656 24.4158 105.656 24.6822C105.656 25.1261 110.85 26.0584 111.205 25.6588C111.294 25.57 111.649 22.8177 112.048 19.5326C113.158 10.6095 112.714 11.4086 116.088 11.7638C118.707 12.0301 118.974 11.9857 118.974 11.231C118.974 10.7871 119.107 9.72168 119.24 8.83381L119.506 7.28005L111.604 6.3034C107.209 5.77069 103.347 5.32675 102.948 5.32675C102.415 5.32675 102.149 5.90387 101.927 7.36884Z" fill="#FFD600"/>
<path d="M73.9145 6.17014L71.6948 6.4365L71.828 7.99026C71.9168 8.83373 72.4051 13.1399 72.9378 17.5348L73.9145 25.5256L76.5781 25.3924C78.043 25.3036 79.3304 25.126 79.4192 25.0372C79.6412 24.8153 77.7767 7.90147 77.4215 6.52529C77.2884 6.12575 76.9332 5.815 76.6669 5.85939C76.3561 5.85939 75.1575 6.03696 73.9145 6.17014Z" fill="#FFD600"/>
<path d="M64.1037 7.591L62.2836 8.03493L62.0172 12.7406C61.8396 15.3154 61.7065 18.5561 61.7065 19.9323C61.6621 22.951 61.7065 22.9954 57.4003 15.493C55.6246 12.4299 54.1152 10.2102 53.7157 10.2102C52.2951 10.2546 48.7881 11.3644 48.8324 11.764C48.9656 12.785 59.5756 28.4114 60.1527 28.4114C61.4401 28.4114 65.2579 27.4347 65.5243 27.0352C65.6575 26.8132 66.1458 23.0842 66.5897 18.7337C67.078 14.4275 67.5664 10.0326 67.6995 8.96719C67.9659 7.23586 67.9215 7.10268 66.9449 7.14707C66.3677 7.19146 65.1247 7.36903 64.1037 7.591Z" fill="#FFD600"/>
<path d="M121.682 16.9579C120.394 21.6636 119.196 25.8365 119.107 26.2361C118.974 26.7688 119.418 27.0796 120.883 27.4347C121.948 27.7455 123.147 28.0562 123.502 28.1894C124.035 28.4113 124.434 27.4347 125.411 23.7501C126.121 21.1753 126.787 18.9556 126.92 18.8668C127.098 18.778 127.986 21.3084 128.962 24.4604L130.693 30.2315L133.091 30.8974C134.423 31.2969 135.666 31.4301 135.843 31.2525C136.021 31.0305 137.219 27.1683 138.462 22.6402C139.75 18.1121 140.86 14.1168 140.993 13.7172C141.17 13.0513 140.993 12.9625 136.687 11.7195C136.109 11.5419 135.71 12.4298 134.733 16.0701C134.023 18.6005 133.357 20.7757 133.18 20.9533C133.046 21.1309 132.158 18.6892 131.182 15.5373L129.406 9.72183L127.231 9.10033C126.032 8.74518 124.834 8.43443 124.567 8.43443C124.301 8.43443 123.013 12.2966 121.682 16.9579Z" fill="#FFD600"/>
<path d="M28.5447 14.072C28.2339 14.1608 27.9676 14.5603 27.9676 14.8711C27.9676 15.7146 26.547 16.4249 24.9044 16.4249C23.2175 16.4249 21.9745 18.0674 22.374 19.7543C22.7736 21.3525 24.5937 20.9974 24.6381 19.3104C24.6381 19.0885 25.6147 18.7333 26.769 18.5557C27.9676 18.4226 29.2106 18.023 29.5657 17.7567C30.2316 17.1795 30.3648 15.6702 29.9209 14.4716C29.6545 13.7169 29.4325 13.6725 28.5447 14.072Z" fill="#FFD600"/>
<path d="M144.1 24.4604C140.282 28.367 137.175 31.7408 137.175 31.874C137.175 32.0516 138.329 32.6731 139.705 33.2502L142.191 34.36L143.257 33.117L144.322 31.874L147.208 33.1614L150.138 34.4044L149.916 36.0914C149.694 37.8227 149.694 37.8227 152.091 38.8881C153.423 39.4653 154.666 39.9536 154.843 39.9536C155.154 39.9536 156.752 23.3061 156.708 20.6426C156.708 19.9767 156.042 19.3995 154.266 18.5117C152.89 17.8458 151.647 17.3131 151.425 17.3131C151.203 17.3131 147.918 20.5094 144.1 24.4604ZM151.292 26.9464L150.848 30.1427L149.205 29.388C148.317 28.9885 147.518 28.6333 147.43 28.5445C147.341 28.5001 148.229 27.3459 149.383 25.9697C150.537 24.6379 151.558 23.5725 151.647 23.6613C151.736 23.7057 151.558 25.2151 151.292 26.9464Z" fill="#FFD600"/>
<path d="M27.7458 19.7107C25.171 20.9093 22.9514 23.2178 22.1967 25.5262C20.8205 29.6992 23.928 36.3138 28.1898 38.2227C30.365 39.2437 32.1408 39.2881 34.6712 38.4003C40.5755 36.3138 42.9727 31.7413 41.0638 26.1477C38.7553 19.5776 33.4726 17.0027 27.7458 19.7107ZM33.7389 24.8603C35.2039 26.4141 36.5801 30.2319 36.1805 31.5193C35.8254 32.7179 33.8277 34.1829 32.6291 34.1829C30.2762 34.1829 27.5683 30.3207 27.5239 26.9912C27.5239 23.7061 31.3861 22.3743 33.7389 24.8603Z" fill="#FFD600"/>
<path d="M46.3021 23.2174C44.7927 23.7501 43.4609 24.3272 43.2834 24.5048C43.017 24.7712 43.9049 28.4114 44.3044 28.4114C44.7927 28.4114 51.0522 26.0586 51.0522 25.8366C51.0522 24.9043 49.9423 22.1963 49.5428 22.2407C49.2764 22.2407 47.8115 22.6847 46.3021 23.2174Z" fill="#FFD600"/>
<path d="M161.369 32.7176L156.175 40.5752L157.64 41.8182C158.484 42.4841 159.372 43.0612 159.638 43.0612C159.904 43.0612 161.769 40.5752 163.811 37.5121C165.853 34.449 167.54 31.963 167.629 31.963C167.718 31.963 167.185 33.6055 166.43 35.6032C165.675 37.6453 164.566 40.5752 163.988 42.1734L162.923 45.0589L164.388 46.2576C165.143 46.9235 166.031 47.5006 166.253 47.5006C166.519 47.5006 168.827 45.5029 171.447 43.0612C174.021 40.6196 176.285 38.6219 176.419 38.6219C176.596 38.6219 175.087 41.0192 173.133 43.9491C171.18 46.8791 169.582 49.4095 169.582 49.587C169.582 50.031 172.512 51.9399 173.133 51.9399C173.533 51.9399 183.122 38.0004 183.61 36.6242C183.788 36.2247 182.767 35.2924 180.858 34.005L177.839 31.963L176.463 33.1616C175.753 33.8275 173.888 35.5588 172.379 37.0238C170.869 38.4888 169.538 39.5986 169.404 39.4654C169.316 39.3766 170.115 36.935 171.136 34.0494L173.045 28.8554L170.159 26.8577C168.605 25.7479 167.14 24.8601 166.963 24.8601C166.785 24.8601 164.255 28.4115 161.369 32.7176Z" fill="#FFD600"/>
<path d="M13.4511 27.6568C12.3857 28.4115 11.5422 29.2549 11.5422 29.5213C11.5422 29.7433 12.4301 32.762 13.5399 36.1803C14.6053 39.5542 15.4488 42.3953 15.4044 42.4397C15.36 42.4841 12.9628 40.664 10.1216 38.3555C7.23608 36.0471 4.70567 34.1826 4.43932 34.1826C3.81781 34.1826 0 36.8906 0 37.2901C0 37.4677 3.68463 40.2644 8.16834 43.4608L16.3367 49.3206L18.7339 47.6781C20.0213 46.7458 21.1755 45.9468 21.2643 45.9024C21.6195 45.636 16.1591 26.1918 15.7596 26.2362C15.5376 26.2362 14.4722 26.9021 13.4511 27.6568Z" fill="#FFD600"/>
<path d="M38.2145 65.79C38.727 66.0187 39.0351 66.3776 39.1388 66.8666C39.2438 67.3531 39.1262 67.9136 38.7861 68.5483C38.4728 69.133 38.0817 69.5993 37.6129 69.9474L36.4945 69.4484C36.8636 69.1549 37.1513 68.8963 37.3578 68.6726C37.5656 68.4464 37.7264 68.2271 37.8402 68.0148C37.9768 67.7599 38.0308 67.5425 38.0021 67.3625C37.9748 67.18 37.8615 67.0443 37.6621 66.9554C37.5508 66.9057 37.4364 66.8918 37.3188 66.9136C37.1987 66.9343 37.067 66.9855 36.9238 67.0671C36.782 67.1463 36.5273 67.3252 36.1598 67.6039C35.8173 67.866 35.5261 68.0472 35.2862 68.1476C35.0464 68.248 34.8 68.3037 34.5471 68.3147C34.2942 68.3257 34.0344 68.2717 33.7678 68.1528C33.2656 67.9287 32.9585 67.5889 32.8466 67.1333C32.736 66.6753 32.836 66.1564 33.1466 65.5767C33.2993 65.2919 33.4795 65.0364 33.6873 64.8102C33.8964 64.5816 34.1401 64.3544 34.4183 64.1286L35.1532 64.921C34.8723 65.1579 34.6557 65.3615 34.5034 65.532C34.3525 65.6999 34.2275 65.8764 34.1284 66.0613C34.0105 66.2811 33.9732 66.4735 34.0164 66.6383C34.0596 66.8031 34.1667 66.9236 34.3375 66.9998C34.4437 67.0472 34.5496 67.065 34.6553 67.0534C34.7584 67.0405 34.8749 66.9997 35.0049 66.9307C35.1336 66.8581 35.3975 66.6709 35.7966 66.3691C36.3248 65.9701 36.7679 65.7328 37.126 65.6573C37.4814 65.5806 37.8443 65.6248 38.2145 65.79Z" fill="white"/>
<path d="M41.4208 58.7361C42.3055 59.2616 42.8373 59.8732 43.0162 60.5709C43.1952 61.2686 43.008 62.0052 42.4549 62.7806C41.9017 63.556 41.2393 64.0102 40.4677 64.1433C39.6961 64.2763 38.8656 64.0787 37.976 63.5502C37.0864 63.0218 36.5558 62.4109 36.3842 61.7176C36.2118 61.0204 36.403 60.283 36.9578 59.5053C37.5127 58.7277 38.173 58.2738 38.9389 58.1439C39.7064 58.0117 40.5337 58.2091 41.4208 58.7361ZM38.7859 62.4296C39.383 62.7843 39.9092 62.9441 40.3645 62.909C40.8198 62.8739 41.1998 62.6429 41.5044 62.2159C42.1151 61.3598 41.8198 60.5748 40.6182 59.8611C39.4143 59.1459 38.5085 59.2141 37.901 60.0656C37.5965 60.4926 37.5191 60.905 37.669 61.3029C37.8165 61.6993 38.1888 62.0749 38.7859 62.4296ZM37.1822 58.5051C36.697 58.7327 36.29 58.8753 35.9609 58.9329C36.0299 59.2301 36.0559 59.6218 36.0388 60.1078L35.5375 60.8105L35.4388 60.7518C35.2893 60.042 35.1332 59.5288 34.9706 59.212L35.8522 57.9762C36.03 57.98 36.2911 57.9593 36.6356 57.9142C36.9792 57.8654 37.2956 57.8085 37.5848 57.7437L37.6835 57.8024L37.1822 58.5051Z" fill="white"/>
<path d="M49.303 54.8869L48.1424 56.0952L42.5964 55.108L42.5699 55.1356C43.2558 55.6155 43.7371 55.9662 44.0138 56.1875L46.2984 58.0148L45.4825 58.8642L40.6277 54.9812L41.7795 53.7822L47.2861 54.7432L47.3067 54.7218C46.6463 54.2478 46.1855 53.9063 45.9243 53.6974L43.6264 51.8595L44.4483 51.0039L49.303 54.8869Z" fill="white"/>
<path d="M53.6309 51.4468L49.5587 46.7495L50.6275 45.978L53.9866 49.8527L56.0311 48.3769L56.7442 49.1994L53.6309 51.4468Z" fill="white"/>
<path d="M61.7302 42.811C62.3001 43.6679 62.5149 44.45 62.3746 45.1575C62.2343 45.865 61.7476 46.4494 60.9143 46.9108C60.0811 47.3723 59.2882 47.4964 58.5357 47.2833C57.7832 47.0703 57.1205 46.5329 56.5475 45.6714C55.9745 44.8098 55.7605 44.0289 55.9055 43.3285C56.0513 42.6243 56.5422 42.0409 57.3779 41.5781C58.2136 41.1153 59.0045 40.9906 59.7504 41.2041C60.4989 41.4162 61.1588 41.9518 61.7302 42.811ZM57.7611 45.009C58.1457 45.5873 58.5507 45.9589 58.976 46.1239C59.4013 46.2889 59.8433 46.2443 60.3021 45.9903C61.2221 45.4808 61.2952 44.6442 60.5213 43.4805C59.7458 42.3145 58.9005 41.9848 57.9854 42.4916C57.5266 42.7456 57.2788 43.0847 57.2419 43.5089C57.2035 43.9306 57.3765 44.4307 57.7611 45.009Z" fill="white"/>
<path d="M70.6862 42.5376L69.1248 43.1448L64.6143 39.8637L64.5787 39.8776C64.9803 40.6106 65.2561 41.1377 65.406 41.4588L66.6439 44.1094L65.5461 44.5363L62.9157 38.9036L64.4653 38.301L68.9519 41.5413L68.9797 41.5305C68.5982 40.8139 68.3367 40.304 68.1952 40.0009L66.9501 37.3348L68.0558 36.9049L70.6862 42.5376Z" fill="white"/>
<path d="M74.519 37.9036L76.913 37.311L77.8314 40.4005C77.4806 40.6215 77.1405 40.7991 76.811 40.9331C76.4852 41.0692 76.1434 41.1815 75.7857 41.2701C74.8748 41.4955 74.1003 41.4043 73.462 40.9963C72.8257 40.585 72.3606 39.8848 72.0665 38.8957C71.7806 37.9338 71.8356 37.1151 72.2315 36.4395C72.6301 35.7632 73.3234 35.3028 74.3113 35.0582C74.9304 34.905 75.5639 34.8795 76.2117 34.9816L76.087 36.0977C75.5821 35.9893 75.0917 35.994 74.6156 36.1119C74.0625 36.2488 73.674 36.5418 73.4501 36.9911C73.2262 37.4403 73.2063 37.9747 73.3905 38.5942C73.5827 39.2409 73.8632 39.7025 74.2319 39.9788C74.6026 40.2517 75.0438 40.3248 75.5556 40.1981C75.8225 40.132 76.0855 40.0377 76.3445 39.9153L75.9749 38.6721L74.8316 38.9552L74.519 37.9036Z" fill="white"/>
<path d="M89.0818 36.2843C89.1395 37.0134 89.0579 37.6338 88.8368 38.1455C88.6183 38.6542 88.2678 39.0395 87.7852 39.3014L89.4106 40.8688L87.7261 40.9798L86.479 39.6644L86.3814 39.6708C85.431 39.7335 84.6794 39.506 84.1266 38.9885C83.5738 38.471 83.2566 37.6966 83.175 36.6651C83.0933 35.6336 83.2856 34.8298 83.7518 34.2537C84.2207 33.6746 84.9317 33.3536 85.8849 33.2908C86.8382 33.2279 87.5882 33.454 88.1351 33.9691C88.6849 34.4839 89.0004 35.2557 89.0818 36.2843ZM84.5546 36.5827C84.6094 37.2751 84.7822 37.7878 85.073 38.1208C85.3638 38.4539 85.7709 38.6032 86.2942 38.5687C87.3436 38.4996 87.8132 37.7684 87.7029 36.3752C87.5924 34.9792 87.0153 34.3156 85.9715 34.3844C85.4482 34.4189 85.0676 34.6215 84.8297 34.9923C84.5915 35.3602 84.4998 35.8903 84.5546 36.5827Z" fill="white"/>
<path d="M97.2344 33.4948L96.9445 37.5068C96.9114 37.9649 96.7791 38.3601 96.5476 38.6927C96.319 39.0253 96.0042 39.2719 95.6032 39.4324C95.2023 39.5928 94.7373 39.6572 94.2081 39.6253C93.4102 39.5773 92.8052 39.3365 92.3932 38.9028C91.9814 38.4662 91.8011 37.8931 91.8524 37.1835L92.141 33.1884L93.4525 33.2672L93.1783 37.063C93.1438 37.5409 93.2147 37.8972 93.3909 38.1322C93.5672 38.3671 93.8775 38.498 94.3217 38.5247C94.7518 38.5506 95.0712 38.4576 95.2797 38.2458C95.4913 38.0314 95.6145 37.6838 95.6492 37.2032L95.9228 33.4159L97.2344 33.4948Z" fill="white"/>
<path d="M102.073 36.7492L103.881 34.4708L105.28 34.7178L102.461 38.0736L101.959 40.4404L100.669 40.2125L101.162 37.8873L99.9282 33.7725L101.335 34.021L102.073 36.7492Z" fill="white"/>
<path d="M109.342 42.206L105.899 41.2254L107.91 35.3432L111.354 36.3238L111.004 37.3458L108.829 36.7262L108.387 38.0177L110.411 38.5942L110.062 39.6161L108.037 39.0396L107.519 40.5564L109.694 41.176L109.342 42.206ZM110.758 35.6377C110.415 35.2663 110.177 34.9394 110.043 34.657C109.756 34.8137 109.364 34.9609 108.865 35.0984L108.035 34.862L108.072 34.7534C108.76 34.3932 109.247 34.0889 109.533 33.8405L110.993 34.2563C111.03 34.4198 111.11 34.6518 111.235 34.9522C111.363 35.2507 111.493 35.5218 111.626 35.7655L111.588 35.8741L110.758 35.6377Z" fill="white"/>
<path d="M116.798 44.9993L115.251 44.3556L114.857 39.1098L114.822 39.0951C114.5 39.8587 114.26 40.399 114.102 40.716L112.794 43.3328L111.706 42.8803L114.486 37.3195L116.021 37.9583L116.432 43.1606L116.459 43.1721C116.781 42.4331 117.017 41.914 117.167 41.6147L118.482 38.9827L119.577 39.4385L116.798 44.9993Z" fill="white"/>
<path d="M123.997 48.9126L122.886 48.2041L125.998 44.1388L124.574 43.2315L125.241 42.3603L129.199 44.8835L128.533 45.7546L127.109 44.8473L123.997 48.9126Z" fill="white"/>
<path d="M130.937 54.0426L129.921 53.2096L131.804 51.2977L129.9 49.7368L128.017 51.6486L126.998 50.8129L131.36 46.3832L132.379 47.2189L130.67 48.955L132.574 50.516L134.283 48.7799L135.299 49.6129L130.937 54.0426Z" fill="white"/>
<path d="M141.232 55.6091L138.048 58.0681C137.685 58.3488 137.296 58.519 136.881 58.5787C136.469 58.6405 136.058 58.5853 135.648 58.4133C135.238 58.2412 134.853 57.9608 134.492 57.5722C133.948 56.9861 133.688 56.4062 133.71 55.8325C133.734 55.257 134.028 54.7518 134.591 54.3168L137.761 51.8683L138.655 52.8315L135.643 55.1579C135.264 55.4508 135.051 55.7363 135.005 56.0145C134.959 56.2928 135.087 56.595 135.39 56.9213C135.683 57.2372 135.984 57.3973 136.292 57.4018C136.605 57.4065 136.952 57.2616 137.333 56.967L140.338 54.6458L141.232 55.6091Z" fill="white"/>
<path d="M140.032 64.2738L141.048 63.1556L139.741 61.3042L138.205 61.686L137.386 60.5258L144.033 59.1545L144.962 60.471L140.852 65.4339L140.032 64.2738ZM141.82 62.3382C142.735 61.3183 143.253 60.7417 143.374 60.6087C143.496 60.4779 143.594 60.3774 143.669 60.3071C143.302 60.4146 142.374 60.6505 140.885 61.0148L141.82 62.3382ZM145.475 60.3811C145.445 59.8839 145.469 59.4866 145.546 59.189C145.22 59.1248 144.818 58.986 144.339 58.7729L143.841 58.0677L143.94 58.0096C144.711 58.1757 145.288 58.2559 145.671 58.2501L146.547 59.4901C146.471 59.6366 146.384 59.8625 146.289 60.1678C146.197 60.474 146.125 60.7607 146.071 61.028L145.972 61.0862L145.475 60.3811Z" fill="white"/>
<path d="M142.815 68.885L142.19 67.7242L146.863 65.6311L146.063 64.1445L147.064 63.696L149.288 67.83L148.287 68.2786L147.487 66.792L142.815 68.885Z" fill="white"/>
</svg>
